HIERARCHY
ROOT Hips
{
	OFFSET 0.000000 0.000000 0.000000 
	CHANNELS 6 Xposition Yposition Zposition Zrotation Yrotation Xrotation
	JOINT LeftUpLeg
	{
		OFFSET 1.363060 -1.794630 0.839290 
		CHANNELS 3 Zrotation Yrotation Xrotation
		JOINT LeftLeg
		{
			OFFSET 2.448110 -6.726130 0.000000 
			CHANNELS 3 Zrotation Yrotation Xrotation
			JOINT LeftFoot
			{
				OFFSET 2.562200 -7.039590 0.000000 
				CHANNELS 3 Zrotation Yrotation Xrotation
				JOINT LeftToeBase
				{
					OFFSET 0.157640 -0.433110 2.322550 
					CHANNELS 3 Zrotation Yrotation Xrotation
					End Site
					{
						OFFSET 0.000000 0.000000 0.000000 
					}
				}
			}
		}
	}
	JOINT RightUpLeg
	{
		OFFSET -1.305520 -1.794630 0.839290 
		CHANNELS 3 Zrotation Yrotation Xrotation
		JOINT RightLeg
		{
			OFFSET -2.542530 -6.985550 0.000000 
			CHANNELS 3 Zrotation Yrotation Xrotation
			JOINT RightFoot
			{
				OFFSET -2.568260 -7.056230 0.000000 
				CHANNELS 3 Zrotation Yrotation Xrotation
				JOINT RightToeBase
				{
					OFFSET -0.164730 -0.452590 2.363150 
					CHANNELS 3 Zrotation Yrotation Xrotation
					End Site
					{
						OFFSET 0.000000 0.000000 0.000000 
					}
				}
			}
		}
	}
	JOINT Spine
	{
		OFFSET 0.028270 2.035590 -0.193380 
		CHANNELS 3 Zrotation Yrotation Xrotation
		JOINT Spine1
		{
			OFFSET 0.056720 2.048850 -0.042750 
			CHANNELS 3 Zrotation Yrotation Xrotation
			JOINT Neck1
			{
				OFFSET -0.054170 1.746240 0.172020 
				CHANNELS 3 Zrotation Yrotation Xrotation
				JOINT Head
				{
					OFFSET 0.104070 1.761360 -0.123970 
					CHANNELS 3 Zrotation Yrotation Xrotation
					End Site
					{
						OFFSET 0.000000 0.000000 0.000000 
					}
				}
			}
			JOINT LeftArm
			{
				OFFSET 3.362410 1.200890 -0.311210 
				CHANNELS 3 Zrotation Yrotation Xrotation
				JOINT LeftForeArm
				{
					OFFSET 4.983000 -0.000000 -0.000000 
					CHANNELS 3 Zrotation Yrotation Xrotation
					JOINT LeftHand
					{
						OFFSET 3.483560 -0.000000 -0.000000 
						CHANNELS 3 Zrotation Yrotation Xrotation
						JOINT LeftFingerBase
						{
							OFFSET 0.000000 0.000000 0.000000 
							CHANNELS 3 Zrotation Yrotation Xrotation
							End Site
							{
								OFFSET 0.000000 0.000000 0.000000 
							}
						}
					}
				}
			}
			JOINT RightArm
			{
				OFFSET -3.136600 1.374050 -0.404650 
				CHANNELS 3 Zrotation Yrotation Xrotation
				JOINT RightForeArm
				{
					OFFSET -5.241900 -0.000000 -0.000000 
					CHANNELS 3 Zrotation Yrotation Xrotation
					JOINT RightHand
					{
						OFFSET -3.444170 -0.000000 -0.000000 
						CHANNELS 3 Zrotation Yrotation Xrotation
						JOINT RightFingerBase
						{
							OFFSET 0.000000 0.000000 0.000000 
							CHANNELS 3 Zrotation Yrotation Xrotation
							End Site
							{
								OFFSET 0.000000 0.000000 0.000000 
							}
						}
					}
				}
			}
		}
	}
}
MOTION
Frames: 6
Frame Time: 0.008333
-9.504039 13.213994 1.398569 -12.802456 78.930977 -3.364663 -0.389670 8.323386 -50.538927 -17.363896 16.071931 32.101708 -5.763580 -2.099503 2.265417 -12.819866 16.601346 0.107588 -1.180642 -11.127314 -17.425587 -0.273438 -14.623108 78.759263 -0.217125 -2.773943 2.895335 -10.403057 -24.051490 -33.908364 5.080697 -1.504732 -9.974794 -0.354678 3.277682 -3.215076 -0.936178 5.618692 15.315671 -1.145236 5.864021 -34.992639 -77.784165 -78.587487 8.607460 24.308618 -39.427619 -7.707004 6.048607 0.749995 2.705391 -4.947329 0.763931 -2.193050 77.763856 72.337855 44.986974 -18.254221 18.826496 -32.110195 -17.920697 -9.979094 -5.221449 -3.732363 -3.257978 3.535748
-9.274850 13.225946 1.387698 -14.233315 78.829895 -4.375814 -4.626971 11.448545 -53.297106 -9.329295 15.057336 36.933814 -2.735097 5.990426 4.774285 -9.464209 17.247142 0.736887 -2.872020 -15.271498 -23.534591 5.525243 -17.453426 77.402405 0.902782 -1.425361 -4.526541 -13.766855 -24.705806 -33.852624 -0.611052 -0.128799 -5.666285 -9.037401 -3.645285 -8.740559 5.541476 1.515006 7.535407 3.034921 3.985984 -33.768123 -77.398979 -70.633741 10.915552 18.523904 -34.410129 -10.483299 11.935362 -7.034409 3.593871 3.890084 2.696924 4.401956 75.249209 71.447769 44.478669 -23.112972 23.221154 -36.517080 -15.312097 -6.308655 3.745463 0.943324 -1.327577 -4.428010
-9.044865 13.234505 1.380784 -15.252708 78.662460 -5.019760 -2.119213 12.962081 -47.394097 -13.152316 17.699783 40.022925 -7.617451 3.448797 -2.321639 -4.616221 8.180608 -3.670931 -6.617253 -17.555316 -18.446801 -2.300419 -22.549818 83.203947 6.125588 1.254971 -2.382776 -13.622336 -22.465964 -30.027252 -1.238430 -3.093695 -10.735803 -0.081367 -2.783651 -11.037381 0.337935 -0.276882 10.625467 3.242225 2.851083 -36.262423 -85.113306 -77.189209 11.943014 18.075155 -34.461530 -5.449833 12.100805 -1.980241 1.343242 2.620152 0.825500 -4.939698 73.974363 69.348180 42.988925 -22.604038 21.683274 -37.325009 -15.232004 -6.593756 3.005016 2.158403 3.342962 -2.935727
-8.810646 13.247357 1.375132 -16.394274 78.682053 -5.799456 -5.641991 9.072202 -53.389247 -9.945204 19.409989 42.000057 -1.379686 5.051849 -0.738401 -4.202396 12.844753 -1.197112 -6.582285 -18.955305 -23.836126 1.238342 -13.640523 85.654825 1.791500 -3.433424 -3.331686 -17.654311 -19.131889 -27.130904 1.601066 -6.598838 -8.768504 -4.684451 -3.644887 -9.876261 5.462241 2.436034 9.644984 0.044542 4.343632 -29.945083 -81.087059 -70.520980 19.305151 17.409294 -38.147190 -9.995167 9.729718 -0.733714 -1.643815 -2.908731 -2.302447 -0.936183 71.520936 75.406816 47.035724 -24.433609 22.258954 -35.491830 -14.230473 -1.985195 0.384718 -0.936470 0.376516 2.208099
-8.582102 13.253814 1.375227 -16.009581 78.725639 -5.274573 -3.770423 8.400658 -55.154103 -12.388980 20.593789 50.543973 -5.978121 -0.975977 1.923852 -5.845691 9.021574 0.425632 -0.789150 -12.403629 -20.038341 -1.765167 -17.688435 78.282641 4.009537 1.268698 -4.768007 -12.674504 -26.702578 -33.706841 2.280965 -5.810392 -2.342555 1.114141 -6.155243 -10.845536 2.686607 2.436408 8.983184 5.500967 1.627931 -34.755915 -88.469871 -72.451406 23.843728 22.529777 -34.653500 -10.340697 9.818929 -3.041368 2.851432 4.627667 4.642107 0.741861 76.387776 74.687250 47.820679 -17.833195 21.637036 -40.016699 -12.987928 -4.194735 1.892683 -3.126858 0.206588 -1.384990
-8.349069 13.274369 1.382036 -15.685023 78.854462 -4.762503 1.730108 8.592151 -50.690087 -18.610967 21.697712 51.274563 -6.732143 -0.078049 2.790243 -5.457226 10.521707 -8.324775 -4.566219 -18.848383 -20.244804 3.944926 -19.527553 80.973637 5.993041 -4.595380 0.714657 -7.715737 -21.724978 -32.321071 3.449447 -1.832339 -3.629658 -6.329388 1.678504 -4.710831 2.369100 -0.455138 13.396753 2.836743 3.441815 -29.395233 -89.323268 -68.633980 21.163370 18.469288 -38.363333 -8.241336 3.210199 2.031892 -1.785108 4.150235 -1.690914 0.418105 74.554438 69.534152 41.033897 -20.662344 17.126968 -37.713291 -17.063584 -8.432727 -3.132174 0.230576 -3.881130 -3.968728
